<?xml version="1.0" encoding="UTF-8" standalone="no"?>
<!-- Created with Inkscape (http://www.inkscape.org/) -->

<svg
   xmlns:dc="http://purl.org/dc/elements/1.1/"
   xmlns:cc="http://creativecommons.org/ns#"
   xmlns:rdf="http://www.w3.org/1999/02/22-rdf-syntax-ns#"
   xmlns:svg="http://www.w3.org/2000/svg"
   xmlns="http://www.w3.org/2000/svg"
   xmlns:sodipodi="http://sodipodi.sourceforge.net/DTD/sodipodi-0.dtd"
   xmlns:inkscape="http://www.inkscape.org/namespaces/inkscape"
   width="744.09448819"
   height="1052.3622047"
   id="svg2"
   version="1.1"
   inkscape:version="0.48.0 r9654"
   sodipodi:docname="drawing.svg">
  <defs
     id="defs4" />
  <sodipodi:namedview
     id="base"
     pagecolor="#ffffff"
     bordercolor="#666666"
     borderopacity="1.0"
     inkscape:pageopacity="0.0"
     inkscape:pageshadow="2"
     inkscape:zoom="0.44186308"
     inkscape:cx="372.04724"
     inkscape:cy="526.18109"
     inkscape:document-units="px"
     inkscape:current-layer="layer1"
     showgrid="false"
     inkscape:window-width="1024"
     inkscape:window-height="682"
     inkscape:window-x="-4"
     inkscape:window-y="-4"
     inkscape:window-maximized="1" />
  <metadata
     id="metadata7">
    <rdf:RDF>
      <cc:Work
         rdf:about="">
        <dc:format>image/svg+xml</dc:format>
        <dc:type
           rdf:resource="http://purl.org/dc/dcmitype/StillImage" />
        <dc:title></dc:title>
      </cc:Work>
    </rdf:RDF>
  </metadata>
  <g
     inkscape:label="Layer 1"
     inkscape:groupmode="layer"
     id="layer1">
    <g
       id="g3767"
       transform="translate(225.62286,0)">
      <rect
         y="18.968163"
         x="24.980486"
         height="84"
         width="24"
         id="rect2985"
         style="fill:none;stroke:none" />
      <rect
         transform="matrix(0,1,-1,0,0,0)"
         style="fill:none;stroke:none"
         id="rect3755"
         width="24"
         height="60"
         x="18.968163"
         y="-84.980484" />
    </g>
    <path
       sodipodi:type="arc"
       style="fill:none;stroke:none"
       id="path3761"
       sodipodi:cx="59.94968"
       sodipodi:cy="30.737667"
       sodipodi:rx="12.076195"
       sodipodi:ry="4.6363964"
       d="m 72.025875,30.737667 a 12.076195,4.6363964 0 1 1 -24.152389,0 12.076195,4.6363964 0 1 1 24.152389,0 z"
       transform="matrix(0.82807542,0,0,1.725478,238.96049,-22.069006)" />
    <rect
       style="fill:none;stroke:none"
       id="rect3765"
       width="16"
       height="20"
       x="254.60335"
       y="47.222935" />
    <g
       id="g3771"
       transform="matrix(-1,0,0,1,409.64567,0)">
      <rect
         style="fill:none;stroke:none"
         id="rect3773"
         width="24"
         height="84"
         x="24.980486"
         y="18.968163" />
      <rect
         y="-84.980484"
         x="18.968163"
         height="60"
         width="24"
         id="rect3775"
         style="fill:none;stroke:none"
         transform="matrix(0,1,-1,0,0,0)" />
    </g>
    <g
       id="g3785"
       transform="translate(227.68465,109.36801)">
      <rect
         transform="matrix(0,1,-1,0,0,0)"
         style="fill:none;stroke:none"
         id="rect3779"
         width="24"
         height="84"
         x="134.86046"
         y="-106.91869" />
      <rect
         y="-194.86046"
         x="-46.91869"
         height="60"
         width="24"
         id="rect3781"
         style="fill:none;stroke:none"
         transform="scale(-1,-1)" />
    </g>
    <g
       transform="matrix(-1,0,0,1,464.00388,109.36801)"
       id="g3789">
      <rect
         y="-106.91869"
         x="134.86046"
         height="84"
         width="24"
         id="rect3791"
         style="fill:none;stroke:none"
         transform="matrix(0,1,-1,0,0,0)" />
      <rect
         transform="scale(-1,-1)"
         style="fill:none;stroke:none"
         id="rect3793"
         width="24"
         height="60"
         x="-46.91869"
         y="-194.86046" />
    </g>
    <g
       transform="matrix(1,0,0,-1,227.68465,512.86893)"
       id="g3795">
      <rect
         y="-106.91869"
         x="134.86046"
         height="84"
         width="24"
         id="rect3797"
         style="fill:none;stroke:none"
         transform="matrix(0,1,-1,0,0,0)" />
      <rect
         transform="scale(-1,-1)"
         style="fill:none;stroke:none"
         id="rect3799"
         width="24"
         height="60"
         x="-46.91869"
         y="-194.86046" />
    </g>
    <g
       id="g3801"
       transform="matrix(-1,0,0,-1,464.00388,512.86893)">
      <rect
         transform="matrix(0,1,-1,0,0,0)"
         style="fill:none;stroke:none"
         id="rect3803"
         width="24"
         height="84"
         x="134.86046"
         y="-106.91869" />
      <rect
         y="-194.86046"
         x="-46.91869"
         height="60"
         width="24"
         id="rect3805"
         style="fill:none;stroke:none"
         transform="scale(-1,-1)" />
    </g>
    <g
       id="g3807"
       transform="matrix(1,0,0,-1,225.62286,220.02033)">
      <rect
         style="fill:none;stroke:none"
         id="rect3809"
         width="24"
         height="84"
         x="24.980486"
         y="18.968163" />
      <rect
         y="-84.980484"
         x="18.968163"
         height="60"
         width="24"
         id="rect3811"
         style="fill:none;stroke:none"
         transform="matrix(0,1,-1,0,0,0)" />
    </g>
    <g
       transform="matrix(-1,0,0,-1,409.64567,220.02033)"
       id="g3813">
      <rect
         y="18.968163"
         x="24.980486"
         height="84"
         width="24"
         id="rect3815"
         style="fill:none;stroke:none" />
      <rect
         transform="matrix(0,1,-1,0,0,0)"
         style="fill:none;stroke:none"
         id="rect3817"
         width="24"
         height="60"
         x="18.968163"
         y="-84.980484" />
    </g>
    <g
       id="g3827"
       transform="translate(-269.10109,0)">
      <rect
         style="fill:none;stroke:none"
         id="rect3821"
         width="24"
         height="84"
         x="293.10849"
         y="18.968163" />
      <rect
         y="-377.10849"
         x="18.968163"
         height="84"
         width="24"
         id="rect3823"
         style="fill:none;stroke:none"
         transform="matrix(0,1,-1,0,0,0)" />
    </g>
    <g
       transform="matrix(-1,0,0,1,500.9372,0)"
       id="g3831">
      <rect
         y="18.968163"
         x="293.10849"
         height="84"
         width="24"
         id="rect3833"
         style="fill:none;stroke:none" />
      <rect
         transform="matrix(0,1,-1,0,0,0)"
         style="fill:none;stroke:none"
         id="rect3835"
         width="24"
         height="84"
         x="18.968163"
         y="-377.10849" />
    </g>
    <g
       transform="matrix(1,0,0,-1,-269.10109,222.20317)"
       id="g3837">
      <rect
         y="18.968163"
         x="293.10849"
         height="84"
         width="24"
         id="rect3839"
         style="fill:none;stroke:none" />
      <rect
         transform="matrix(0,1,-1,0,0,0)"
         style="fill:none;stroke:none"
         id="rect3841"
         width="24"
         height="84"
         x="18.968163"
         y="-377.10849" />
    </g>
    <g
       id="g3843"
       transform="matrix(-1,0,0,-1,500.9372,222.20317)">
      <rect
         style="fill:none;stroke:none"
         id="rect3845"
         width="24"
         height="84"
         x="293.10849"
         y="18.968163" />
      <rect
         y="-377.10849"
         x="18.968163"
         height="84"
         width="24"
         id="rect3847"
         style="fill:none;stroke:none"
         transform="matrix(0,1,-1,0,0,0)" />
    </g>
    <g
       id="g3859"
       transform="translate(4.543912,-3.1569958)">
      <rect
         style="fill:none;stroke:none"
         id="rect3851"
         width="24"
         height="84"
         x="516.49219"
         y="18.968163" />
      <rect
         y="-600.49219"
         x="78.968163"
         height="84"
         width="24"
         id="rect3853"
         style="fill:none;stroke:none"
         transform="matrix(0,1,-1,0,0,0)" />
      <rect
         y="18.968163"
         x="576.49219"
         height="84"
         width="24"
         id="rect3857"
         style="fill:none;stroke:none" />
    </g>
    <g
       id="g3864"
       transform="matrix(1,0,0,-1,102.75591,118.77933)">
      <rect
         y="18.968163"
         x="516.49219"
         height="84"
         width="24"
         id="rect3866"
         style="fill:none;stroke:none" />
      <rect
         transform="matrix(0,1,-1,0,0,0)"
         style="fill:none;stroke:none"
         id="rect3868"
         width="24"
         height="84"
         x="78.968163"
         y="-600.49219" />
      <rect
         style="fill:none;stroke:none"
         id="rect3870"
         width="24"
         height="84"
         x="576.49219"
         y="18.968163" />
    </g>
    <rect
       y="243.58267"
       x="26.40452"
       height="48"
       width="16"
       id="rect3874"
       style="fill:none;stroke:none" />
    <g
       transform="matrix(0,1,1,0,502.06794,-395.87133)"
       id="g3880">
      <rect
         style="fill:none;stroke:none"
         id="rect3882"
         width="24"
         height="84"
         x="516.49219"
         y="18.968163" />
      <rect
         y="-600.49219"
         x="78.968163"
         height="84"
         width="24"
         id="rect3884"
         style="fill:none;stroke:none"
         transform="matrix(0,1,-1,0,0,0)" />
      <rect
         y="18.968163"
         x="576.49219"
         height="84"
         width="24"
         id="rect3886"
         style="fill:none;stroke:none" />
    </g>
    <g
       id="g3896"
       transform="matrix(0,1,-1,0,722.21626,-395.87133)">
      <rect
         y="18.968163"
         x="516.49219"
         height="84"
         width="24"
         id="rect3898"
         style="fill:none;stroke:none" />
      <rect
         transform="matrix(0,1,-1,0,0,0)"
         style="fill:none;stroke:none"
         id="rect3900"
         width="24"
         height="84"
         x="78.968163"
         y="-600.49219" />
      <rect
         style="fill:none;stroke:none"
         id="rect3902"
         width="24"
         height="84"
         x="576.49219"
         y="18.968163" />
    </g>
  </g>
</svg>
