<?xml version="1.0" encoding="UTF-8" standalone="no"?>
<!-- Created with Inkscape (http://www.inkscape.org/) -->

<svg
   xmlns:dc="http://purl.org/dc/elements/1.1/"
   xmlns:cc="http://creativecommons.org/ns#"
   xmlns:rdf="http://www.w3.org/1999/02/22-rdf-syntax-ns#"
   xmlns:svg="http://www.w3.org/2000/svg"
   xmlns="http://www.w3.org/2000/svg"
   xmlns:sodipodi="http://sodipodi.sourceforge.net/DTD/sodipodi-0.dtd"
   xmlns:inkscape="http://www.inkscape.org/namespaces/inkscape"
   width="744.09448819"
   height="1052.3622047"
   id="svg2"
   version="1.1"
   inkscape:version="0.48.0 r9654"
   sodipodi:docname="bullnose.svg">
  <defs
     id="defs4" />
  <sodipodi:namedview
     id="base"
     pagecolor="#ffffff"
     bordercolor="#666666"
     borderopacity="1.0"
     inkscape:pageopacity="0.0"
     inkscape:pageshadow="2"
     inkscape:zoom="0.44186308"
     inkscape:cx="372.04724"
     inkscape:cy="526.18109"
     inkscape:document-units="px"
     inkscape:current-layer="layer1"
     showgrid="false"
     inkscape:window-width="1024"
     inkscape:window-height="682"
     inkscape:window-x="-4"
     inkscape:window-y="-4"
     inkscape:window-maximized="1" />
  <metadata
     id="metadata7">
    <rdf:RDF>
      <cc:Work
         rdf:about="">
        <dc:format>image/svg+xml</dc:format>
        <dc:type
           rdf:resource="http://purl.org/dc/dcmitype/StillImage" />
        <dc:title />
      </cc:Work>
    </rdf:RDF>
  </metadata>
  <g
     inkscape:label="Layer 1"
     inkscape:groupmode="layer"
     id="layer1">
    <path
       inkscape:connector-curvature="0"
       style="fill:none;stroke:none"
       d="m 6,251.26012 c -3.19914,0 -5.77802,2.47546 -5.96875,5.625 l -0.0312,0 0,0.375 0,6 6,0 42,0 0,-6.375 0,-5.625 -6,0 -36,0 z"
       id="rect2989" />
    <path
       inkscape:connector-curvature="0"
       style="fill:none;stroke:none"
       d="m 0,263.26012 0,6 0,0.15625 c 0.0816,3.25182 2.72781,5.84375 6,5.84375 l 12,0 6,0 0,-5.84375 0,-0.15625 0,-6 -18,0 -6,0 z"
       id="rect2991" />
    <path
       sodipodi:nodetypes="csc"
       inkscape:connector-curvature="0"
       id="path2993"
       d="m 42.49882,239.08217 c 0,0 -12.81563,6.90326 0,24.17804 12.12791,16.34778 0,24.17803 0,24.17803"
       style="fill:none;stroke:#000000;stroke-width:1.05721462px;stroke-linecap:butt;stroke-linejoin:miter;stroke-opacity:1" />
    <path
       sodipodi:nodetypes="cccscc"
       inkscape:connector-curvature="0"
       d="m 56.56795,239.26021 0,48 -14.03457,0.089 c 0,0 12.09335,-7.74124 -0.0346,-24.08902 -12.81562,-17.27478 0.0346,-24.08902 0.0346,-24.08902 z"
       style="fill:none;stroke:#000000;stroke-width:1.05721462px;stroke-linecap:butt;stroke-linejoin:miter;stroke-opacity:1"
       id="path2995" />
    <rect
       transform="matrix(0,1,-1,0,0,0)"
       y="-48"
       x="315.65305"
       height="48"
       width="12"
       id="rect3022"
       style="fill:none;stroke:none" />
    <rect
       style="fill:none;stroke:none"
       id="rect3024"
       width="12"
       height="24"
       x="327.65323"
       y="-24"
       transform="matrix(0,1,-1,0,0,0)" />
    <path
       sodipodi:nodetypes="csc"
       inkscape:connector-curvature="0"
       id="path3026"
       d="m 42.500303,303.58136 c 0,0 -12.815625,6.90326 0,24.17803 12.127917,16.34779 0,24.17804 0,24.17804"
       style="fill:none;stroke:#000000;stroke-width:1.05721462px;stroke-linecap:butt;stroke-linejoin:miter;stroke-opacity:1" />
    <path
       sodipodi:nodetypes="cccscc"
       inkscape:connector-curvature="0"
       d="m 56.569433,303.65312 0,48 -14.034565,0.089 c 0,0 12.093352,-7.74123 -0.03457,-24.08901 -12.815625,-17.27478 0.03457,-24.08902 0.03457,-24.08902 z"
       style="fill:none;stroke:#000000;stroke-width:1.05721462px;stroke-linecap:butt;stroke-linejoin:miter;stroke-opacity:1"
       id="path3028" />
    <rect
       transform="matrix(0,1,-1,0,0,0)"
       y="-24"
       x="327.65323"
       height="24"
       width="12"
       id="rect3030"
       style="fill:none;stroke:none" />
    <path
       inkscape:connector-curvature="0"
       id="path3801"
       d="M 4.3125,377.13766 0,381.41891 l 0,7.71875 48,0 0,-12 -43.6875,0 z"
       style="fill:none;stroke:none" />
    <path
       sodipodi:nodetypes="csc"
       inkscape:connector-curvature="0"
       id="path3803"
       d="m 42.500303,365.12983 c 0,0 -12.815625,6.90326 0,24.17803 12.127917,16.34779 0,24.17804 0,24.17804"
       style="fill:none;stroke:#000000;stroke-width:1.05721462px;stroke-linecap:butt;stroke-linejoin:miter;stroke-opacity:1" />
    <path
       sodipodi:nodetypes="cccscc"
       inkscape:connector-curvature="0"
       d="m 56.569433,365.2016 0,48 -14.034565,0.089 c 0,0 12.093352,-7.74123 -0.03457,-24.08901 -12.815625,-17.27478 0.03457,-24.08902 0.03457,-24.08902 z"
       style="fill:none;stroke:#000000;stroke-width:1.05721462px;stroke-linecap:butt;stroke-linejoin:miter;stroke-opacity:1"
       id="path3805" />
    <path
       sodipodi:nodetypes="cccccc"
       inkscape:connector-curvature="0"
       id="path3810"
       d="m 0,436.79578 0,5.9375 8.0625,6.0625 39.9375,0 0,-12 z"
       style="fill:none;stroke:none" />
    <path
       sodipodi:nodetypes="csc"
       inkscape:connector-curvature="0"
       id="path3812"
       d="m 42.500303,424.78795 c 0,0 -12.815625,6.90326 0,24.17803 12.127917,16.34779 0,24.17804 0,24.17804"
       style="fill:none;stroke:#000000;stroke-width:1.05721462px;stroke-linecap:butt;stroke-linejoin:miter;stroke-opacity:1" />
    <path
       sodipodi:nodetypes="cccscc"
       inkscape:connector-curvature="0"
       d="m 56.569433,424.85971 0,48 -14.034565,0.089 c 0,0 12.093352,-7.74123 -0.03457,-24.08901 -12.815625,-17.27477 0.03457,-24.08902 0.03457,-24.08902 z"
       style="fill:none;stroke:#000000;stroke-width:1.05721462px;stroke-linecap:butt;stroke-linejoin:miter;stroke-opacity:1"
       id="path3814" />
    <path
       style="fill:none;stroke:none"
       d="M 4.3125,499.57939 0,503.86064 l 0,7.71875 48,0 0,-12 -43.6875,0 z"
       id="path3826"
       inkscape:connector-curvature="0" />
    <path
       id="path3828"
       style="fill:none;stroke:#000000;stroke-width:1.05721462px;stroke-linecap:butt;stroke-linejoin:miter;stroke-opacity:1"
       d="m 56.569433,487.64333 0,48 -14.034565,0.089 c 0,0 12.093352,-7.74123 -0.03457,-24.08901 -12.815625,-17.27478 0.03457,-24.08902 0.03457,-24.08902 z"
       inkscape:connector-curvature="0"
       sodipodi:nodetypes="cccscc" />
    <path
       style="fill:none;stroke:none"
       d="m 0,511.58383 0,7.71875 4.3125,4.28125 19.6875,0 0,-12 -24,0 z"
       id="path3837"
       inkscape:connector-curvature="0" />
    <path
       style="fill:none;stroke:none"
       d="m 48.009236,180.93689 0,12 -47.99999974,0 c 0,0 -0.23627369,-2.50361 1.68121754,-4.26694 1.9174912,-1.76333 4.3632295,-0.81673 6.4841527,-2.47161 2.1209225,-1.65488 0.6902609,-4.28666 5.5900455,-5.26145 z"
       id="rect3839"
       inkscape:connector-curvature="0"
       sodipodi:nodetypes="ccczzcc" />
    <rect
       transform="matrix(0,1,-1,0,0,0)"
       y="-24"
       x="193.12236"
       height="24"
       width="12"
       id="rect3841"
       style="fill:none;stroke:none" />
    <path
       style="fill:none;stroke:#000000;stroke-width:1.05721462px;stroke-linecap:butt;stroke-linejoin:miter;stroke-opacity:1"
       d="m 42.500303,168.76123 c 0,0 -12.815625,6.90327 0,24.17804 12.127917,16.34779 0,24.17804 0,24.17804"
       id="path3843"
       inkscape:connector-curvature="0"
       sodipodi:nodetypes="csc" />
    <path
       id="path3845"
       style="fill:none;stroke:#000000;stroke-width:1.05721462px;stroke-linecap:butt;stroke-linejoin:miter;stroke-opacity:1"
       d="m 56.569433,168.83299 0,48.00001 -14.034565,0.089 c 0,0 12.093352,-7.74123 -0.03457,-24.08901 -12.815625,-17.27478 0.03457,-24.08903 0.03457,-24.08903 z"
       inkscape:connector-curvature="0"
       sodipodi:nodetypes="cccscc" />
    <path
       style="fill:none;stroke:none"
       d="m 48,101.62249 0,12 -36,0 -12,-12 z"
       id="rect3850"
       inkscape:connector-curvature="0"
       sodipodi:nodetypes="ccccc" />
    <path
       style="fill:none;stroke:#000000;stroke-width:1.05721462px;stroke-linecap:butt;stroke-linejoin:miter;stroke-opacity:1"
       d="m 42.500303,89.652227 c 0,0 -12.815625,6.90326 0,24.178033 12.127917,16.34779 0,24.17804 0,24.17804"
       id="path3854"
       inkscape:connector-curvature="0"
       sodipodi:nodetypes="csc" />
    <path
       id="path3856"
       style="fill:none;stroke:#000000;stroke-width:1.05721462px;stroke-linecap:butt;stroke-linejoin:miter;stroke-opacity:1"
       d="m 56.569433,89.723987 0,48.000003 -14.034565,0.089 c 0,0 12.093352,-7.74123 -0.03457,-24.08901 -12.815625,-17.274783 0.03457,-24.089023 0.03457,-24.089023 z"
       inkscape:connector-curvature="0"
       sodipodi:nodetypes="cccscc" />
    <path
       style="fill:none;stroke:none"
       d="m 12,137.62249 -12,0 0,-36 12,12 z"
       id="rect3858"
       inkscape:connector-curvature="0"
       sodipodi:nodetypes="ccccc" />
    <path
       style="fill:none;stroke:#000000;stroke-width:1.05721462px;stroke-linecap:butt;stroke-linejoin:miter;stroke-opacity:1"
       d="m 42.49882,-12.139043 c 0,0 -12.81563,6.90326 0,24.17804 12.12791,16.34778 0,24.17803 0,24.17803"
       id="path3866"
       inkscape:connector-curvature="0"
       sodipodi:nodetypes="csc" />
    <path
       id="path3868"
       style="fill:none;stroke:#000000;stroke-width:1.05721462px;stroke-linecap:butt;stroke-linejoin:miter;stroke-opacity:1"
       d="m 56.56795,-11.961003 0,48 -14.03457,0.089 c 0,0 12.09335,-7.74124 -0.0346,-24.08902 -12.81562,-17.27478 0.0346,-24.08902 0.0346,-24.08902 z"
       inkscape:connector-curvature="0"
       sodipodi:nodetypes="cccscc" />
    <path
       style="fill:#008000;stroke:none"
       d="M 13.577736,0 C 6.1199687,0 -0.62695294,6.1252791 0.04648577,12 l 18.31250023,0 28.5625,0 1.125,0 0,-12 -16.65625,0 -13.03125,0 z"
       id="rect3870"
       inkscape:connector-curvature="0"
       sodipodi:nodetypes="scccccccs" />
    <path
       style="fill:#008000;stroke:none"
       d="M 0.04648577,12 C -0.62695294,17.874721 6.1199685,24 13.577736,24 l 4.78125,0 5.65625,0 0,-12 -5.65625,0 -18.31250023,0 z"
       id="path3890"
       inkscape:connector-curvature="0" />
  </g>
</svg>
